<?xml version="1.0" encoding="UTF-8"?>
<svg xmlns="http://www.w3.org/2000/svg" id="Ebene_3" width="22" height="22" viewBox="0 0 22 22">
  <path d="m5.92,9.32h6.34c.28,0,.5-.22.5-.5v-3.71c.72-.24,1.24-.91,1.24-1.71,0-.99-.81-1.8-1.8-1.8s-1.8.81-1.8,1.8c0,.84.58,1.55,1.36,1.74v3.17h-5.83c-.21-.76-.91-1.32-1.73-1.32-.99,0-1.8.81-1.8,1.8s.81,1.8,1.8,1.8c.81,0,1.5-.54,1.72-1.28Zm5.48-5.92c0-.44.36-.8.8-.8s.8.36.8.8-.36.8-.8.8-.8-.36-.8-.8Zm-7.2,6.2c-.44,0-.8-.36-.8-.8s.36-.8.8-.8.8.36.8.8-.36.8-.8.8Z"></path>
  <path d="m17.8,5c-.99,0-1.8.81-1.8,1.8,0,.41.14.78.37,1.09l-2.9,2.95h-7.06c-.28,0-.5.22-.5.5v1.73c-.75.21-1.31.91-1.31,1.73,0,.99.81,1.8,1.8,1.8s1.8-.81,1.8-1.8c0-.82-.55-1.51-1.29-1.73v-1.23h6.77c.13,0,.26-.05.36-.15l3.08-3.14s.04-.05.06-.07c.2.07.41.12.63.12.99,0,1.8-.81,1.8-1.8s-.81-1.8-1.8-1.8ZM7.2,14.8c0,.44-.36.8-.8.8s-.8-.36-.8-.8.36-.8.8-.8.8.36.8.8Zm10.6-7.2c-.44,0-.8-.36-.8-.8s.36-.8.8-.8.8.36.8.8-.36.8-.8.8Z"></path>
  <path d="m17.2,12c-.85,0-1.57.6-1.75,1.39h-5.02s0,0,0,0c-.13,0-.26.05-.35.15-.09.09-.15.22-.15.35v2.98c-.77.21-1.33.91-1.33,1.74,0,.99.81,1.8,1.8,1.8s1.8-.81,1.8-1.8c0-.81-.53-1.49-1.27-1.72v-2.49h4.57c.25.71.91,1.21,1.7,1.21.99,0,1.8-.81,1.8-1.8s-.81-1.8-1.8-1.8Zm-6,6.6c0,.44-.36.8-.8.8s-.8-.36-.8-.8.36-.8.8-.8.8.36.8.8Zm6-4c-.44,0-.8-.36-.8-.8s.36-.8.8-.8.8.36.8.8-.36.8-.8.8Z"></path>
</svg>
