<?xml version="1.0" encoding="UTF-8"?>
<svg xmlns="http://www.w3.org/2000/svg" id="Ebene_3" width="22" height="22" viewBox="0 0 22 22">
  <g id="fYB00H.tif">
    <g id="Gruppe_879">
      <path id="Pfad_501" d="m10.29,12.13s.08.1.1.16c.74,1.5,1.48,2.99,2.21,4.49.07.14.14.27.21.41.09.21.3.34.53.35.36.02.71,0,1.07-.01.12,0,.05-.08.03-.12-.18-.39-.37-.78-.55-1.17-.74-1.61-1.49-3.21-2.23-4.82-.04-.07-.04-.16,0-.23.31-.58.63-1.16.93-1.74.06-.12.09-.09.16,0,.37.49.75.97,1.12,1.45.04.05.1.07.16.06.5,0,1,0,1.5,0,.11,0,.14.02.14.14,0,2.19,0,4.38.02,6.58,0,.07-.02.14-.08.18-.31.3-.62.61-.93.91-.03.04-.08.07-.13.07h-1.4c-.03-.05.01-.08.03-.1.22-.21.49-.47.72-.69.02-.03.09-.07.07-.1-.01-.03-.08-.02-.12-.02-.39,0-.72,0-1.11,0-.07,0-.15.03-.2.08-.25.25-.5.49-.74.73-.05.06-.13.09-.21.09-2.04,0-4.08-.02-6.12-.02-.03,0-.06,0-.09,0,0-.07.05-.09.08-.12.25-.25.5-.5.75-.75.06-.05.09-.12.08-.19,0-.67,0-1.25,0-1.92,0-.1-.02-.13-.13-.13-.61,0-1.32,0-1.93,0,0-.02-.01-.03-.01-.03.19-.38.46-.84.67-1.21.23-.42.69-.69,1.17-.69.23,0,.23,0,.23-.24,0-3.04-.02-6.02-.02-9.06,0-.11.02-.14.13-.14,3.04,0,6.09,0,9.13,0,.1,0,.12.03.12.13,0,1.69,0,3.37,0,5.06,0,.1-.03.13-.13.13-.4,0-.8,0-1.2,0-.07,0-.14-.03-.17-.09-.19-.32-.38-.65-.59-.96-.48-.76-1.33-1.22-2.23-1.2-.88-.02-1.77,0-2.65,0-.22,0-.42.09-.57.25-.54.65-.97,1.37-1.3,2.14-.04.09-.06.2-.05.3,0,.2.13.37.31.43.19.08.42.03.55-.14.26-.37.5-.75.72-1.14.1-.18.2-.36.3-.55.03-.07.1-.11.17-.11.42,0,.83,0,1.25,0,.1,0,.12.03.07.12-.39.84-.78,1.68-1.17,2.52-.04.1-.06.21-.06.31-.08.79-.17,1.59-.24,2.38-.01.12-.05.15-.17.15-.81,0-1.61,0-2.42-.02-.32-.01-.62.13-.8.39-.2.28-.38.58-.52.9-.05.09.01.09.07.09h4.2c.14,0,.29-.01.43-.05.24-.07.41-.28.42-.53.09-.87.23-1.74.34-2.6,0-.02.01-.04.02-.06Zm3.48-6.01c0-.65-.52-1.18-1.17-1.18-.65,0-1.18.52-1.18,1.17,0,.65.52,1.18,1.17,1.18,0,0,0,0,0,0,.65,0,1.18-.52,1.18-1.17h0Z"></path>
    </g>
  </g>
</svg>
