<?xml version="1.0" encoding="UTF-8"?>

<svg id="Ebene_3" xmlns="http://www.w3.org/2000/svg" width="16" height="16" viewBox="0 0 16 16">
  <defs><style>.cls-1{fill:CurrentColor;}</style></defs>
    <path id="Pfad_476" class="cls-1" d="m2.05,9.5c-.18,0-.35.03-.51.11-.29.14-.46.44-.45.76,0,.12.03.23.07.34.07.18.17.35.29.49.25.29.55.54.89.72.18.11.38.18.59.21.21.03.42-.01.59-.12.17-.11.3-.27.38-.46.05-.12.07-.25.05-.38,0-.08-.03-.17-.05-.25-.05-.15-.13-.29-.22-.43-.13-.18-.27-.34-.43-.49-.17-.16-.37-.29-.59-.38-.2-.08-.41-.13-.62-.13M7.8,2.28s.04.05.06.07c.26.24.52.49.78.73.01.01.03.02.05.04.12-.12.23-.24.35-.36s.23-.24.35-.37c.02,0,.03.02.04.03.3.27.61.55.91.83.01,0,.02.02.03.04-.01.02-.03.04-.04.05-.39.43-.78.86-1.17,1.29l-2.08,2.3c-.84.93-1.69,1.86-2.53,2.79-.02.02-.04.05-.06.07.02.03.03.06.05.08.16.25.29.53.38.81.08.24.12.49.13.74.02.52-.19,1.03-.58,1.38-.23.22-.52.37-.84.44-.2.04-.4.05-.6.04-.45-.05-.89-.19-1.28-.42-.28-.16-.53-.35-.76-.57-.18-.18-.34-.38-.47-.6-.21-.32-.36-.68-.45-1.05-.05-.2-.07-.4-.07-.6,0-.41.15-.81.42-1.12.26-.31.62-.52,1.01-.6.16-.03.32-.04.48-.03.4.03.8.14,1.15.32.14.07.27.14.4.23.02.01.03.02.05.03.03-.02.06-.05.08-.08.38-.42.76-.84,1.15-1.27.83-.92,1.66-1.84,2.5-2.76.02-.02.03-.04.05-.05,0-.04-.04-.05-.06-.07-.26-.24-.52-.47-.78-.71-.03-.03-.06-.06-.09-.08,0-.03.02-.04.03-.05l1.35-1.45s.04-.03.04-.06h.02Z"/><path id="Pfad_475" class="cls-1" d="m13.3,4.8c0,.11.03.23.09.32.11.17.27.29.46.35.08.03.17.03.26.02.29-.04.53-.24.61-.52.06-.16.05-.35-.03-.5-.1-.19-.27-.33-.47-.39-.09-.03-.19-.03-.28-.02-.21.04-.4.16-.51.34-.08.11-.12.25-.12.39m-3.15,2.79s-.04-.04-.06-.06c-.09-.08-.18-.16-.27-.24-.08-.08-.12-.19-.11-.3.02-.17.17-.3.34-.3.09,0,.18.04.25.1.07.07.14.14.22.2.08.07.19.1.29.07.09-.02.15-.1.14-.19,0-.02,0-.05,0-.07-.02-.07-.04-.13-.07-.2-.04-.09-.07-.18-.09-.28-.07-.31-.09-.62-.07-.94.02-.48.19-.94.47-1.32.13-.18.29-.35.47-.48.35-.27.75-.46,1.19-.56.22-.05.45-.07.68-.05.6.04,1.16.28,1.59.7.39.35.67.81.8,1.33.07.26.09.54.07.81-.03.39-.15.77-.35,1.12-.16.3-.37.56-.63.77-.3.25-.66.42-1.05.5-.28.06-.57.07-.86.05-.17-.01-.35-.04-.51-.09-.08-.03-.16-.04-.25-.03-.09,0-.16.05-.2.13-.04.08-.03.18.04.24.06.05.11.1.17.15.05.04.1.09.15.13.14.15.14.38,0,.52,0,0-.01.01-.02.02-.1.07-.23.07-.33,0-.07-.05-.14-.1-.2-.15-.05-.04-.11-.08-.16-.12-.02-.02-.04-.03-.06-.04-.03,0-.05.04-.07.06-.32.36-.64.71-.96,1.07l-2.85,3.17c-.07.08-.15.14-.24.2-.16.1-.34.17-.52.2-.21.03-.43-.01-.61-.13-.18-.11-.33-.28-.43-.47-.13-.26-.13-.56,0-.82.05-.11.12-.22.21-.31.89-.99,1.78-1.98,2.66-2.97l1.21-1.35s.04-.04.06-.07"/>
</svg>
