<?xml version="1.0" encoding="UTF-8"?>
<svg xmlns="http://www.w3.org/2000/svg" id="Ebene_3" width="22" height="22" viewBox="0 0 22 22">
  <path d="m15.06,9.11H7.03c-.44,0-.8.36-.8.8v6.39c0,.44.36.8.8.8h8.03c.44,0,.8-.36.8-.8v-6.39c0-.44-.36-.8-.8-.8Zm-3.29,4.04v2.23h-1.45v-2.23c-.33-.23-.54-.61-.54-1.04,0-.7.57-1.27,1.27-1.27s1.27.57,1.27,1.27c0,.43-.22.81-.55,1.04Z"></path>
  <path d="m9.48,5.87c.53-.52,1.22-.53,1.57-.52h0s.05,0,.05,0h.05s0,0,0,0c.35,0,1.05,0,1.57.52.5.49.75,1.35.75,2.54h1c0-1.47-.35-2.56-1.05-3.25-.83-.83-1.9-.82-2.31-.81h-.01s-.01,0-.01,0c-.4,0-1.48-.01-2.31.81-.69.69-1.05,1.78-1.05,3.25h1c0-1.19.25-2.04.75-2.54Z"></path>
  <path d="m3.98,11.27h1.55v-1h-1.54c-.21-.67-.83-1.15-1.56-1.15-.9,0-1.63.73-1.63,1.63s.73,1.63,1.63,1.63c.72,0,1.33-.47,1.55-1.12Zm-2.18-.52c0-.35.28-.63.63-.63s.63.28.63.63-.28.63-.63.63-.63-.28-.63-.63Z"></path>
  <path d="m4.41,14.46v-.91h1.12v-1h-1.62c-.28,0-.5.22-.5.5v1.4c-.66.21-1.14.83-1.14,1.56,0,.9.73,1.63,1.63,1.63s1.63-.73,1.63-1.63c0-.72-.47-1.34-1.13-1.55Zm-.51,2.19c-.35,0-.63-.28-.63-.63s.28-.63.63-.63.63.28.63.63-.28.63-.63.63Z"></path>
  <path d="m19.57,11.29c-.72,0-1.33.47-1.55,1.12h-1.45v1h1.44c.21.67.83,1.15,1.56,1.15.9,0,1.63-.73,1.63-1.63s-.73-1.63-1.63-1.63Zm0,2.27c-.35,0-.63-.28-.63-.63s.28-.63.63-.63.63.28.63.63-.28.63-.63.63Z"></path>
  <path d="m18.79,10.62v-1.4c.66-.21,1.14-.83,1.14-1.56,0-.9-.73-1.63-1.63-1.63s-1.63.73-1.63,1.63c0,.72.47,1.34,1.13,1.55v.91h-1.23v1h1.73c.28,0,.5-.22.5-.5Zm-1.13-2.96c0-.35.28-.63.63-.63s.63.28.63.63-.28.63-.63.63-.63-.28-.63-.63Z"></path>
</svg>
