<?xml version="1.0" encoding="UTF-8"?>
<svg xmlns="http://www.w3.org/2000/svg" id="Ebene_3" width="22" height="22" viewBox="0 0 22 22">
  <g id="gH4PDJ.tif">
    <g id="Gruppe_869">
      <path id="Pfad_477" d="m15.33,15.69v1.29h-1.22v-1.27h-5.46v1.26h-1.23v-1.27h-2.09V5.02h11.33v2.19h-2.3v1.22h2.29v1.31h-2.29v1.21h2.3v1.3h-2.29v1.24h2.3v2.21h-1.33Zm-4.33-3.05c1.27,0,2.3-1.02,2.3-2.29,0-1.27-1.02-2.3-2.29-2.3-1.26,0-2.29,1.02-2.3,2.28,0,1.27,1.02,2.3,2.29,2.3h0Zm-4.01-2.88v1.18h1.3v-1.19h-1.19s-.07,0-.11.02h0Z"></path>
      <path id="Pfad_478" d="m10.99,9.29c.59,0,1.07.47,1.07,1.06s-.47,1.07-1.06,1.07c-.59,0-1.07-.47-1.07-1.06,0,0,0-.01,0-.02,0-.58.46-1.05,1.04-1.06,0,0,.01,0,.02,0Z"></path>
    </g>
  </g>
</svg>
