<?xml version="1.0" encoding="UTF-8"?>
<svg id="Ebene_3" xmlns="http://www.w3.org/2000/svg" width="327.83" height="90.03" viewBox="0 0 327.83 90.03">
  <defs>
    <style>
      .cls-1wef23 {
        fill: #b20d18;
      }

      .cls-25h6t4 {
        fill: #b20d18;
      }

      .cls-3q34tew {
        fill: #a90f17;
      }
    </style>
  </defs>
  <g id="Gruppe_871">
    <g id="Linie_297">
      <rect class="cls-3q34tew" x="34.45" y="63.61" width="293.37" height="8" />
    </g>
    <path id="Pfad_381" class="cls-1wef23" d="m16.14,56.9c-1.39-.06-2.78.25-4.02.9-2.26,1.13-3.64,3.49-3.52,6.01.03.92.22,1.83.57,2.68.55,1.41,1.33,2.73,2.31,3.89,1.95,2.32,4.32,4.25,6.98,5.68,1.42.83,2.99,1.38,4.63,1.62,1.62.26,3.27-.08,4.66-.95,1.34-.86,2.38-2.12,2.97-3.6.39-.94.53-1.96.43-2.97-.07-.66-.21-1.32-.42-1.95-.42-1.19-1-2.32-1.73-3.35-1-1.4-2.12-2.7-3.37-3.89-1.33-1.3-2.9-2.32-4.61-3.02-1.54-.65-3.19-1.01-4.87-1.06M61.43,0c.15.17.28.36.44.51,2.05,1.93,4.11,3.85,6.17,5.76.11.1.25.19.41.32.97-.93,1.84-1.92,2.76-2.87s1.83-1.92,2.76-2.91c.12.07.23.15.34.24,2.39,2.17,4.77,4.34,7.16,6.51.08.08.15.17.26.28-.1.15-.21.29-.32.43-3.07,3.39-6.14,6.79-9.22,10.18-5.47,6.04-10.93,12.08-16.4,18.12-6.64,7.33-13.28,14.65-19.92,21.98-.17.19-.32.38-.5.58.14.24.27.45.4.66,1.25,2.01,2.25,4.16,2.98,6.41.63,1.87.98,3.83,1.04,5.81.19,4.12-1.5,8.11-4.59,10.85-1.84,1.73-4.13,2.93-6.6,3.45-1.54.33-3.12.42-4.69.28-3.55-.37-6.99-1.51-10.06-3.34-2.17-1.23-4.18-2.73-5.97-4.47-1.43-1.43-2.68-3.02-3.73-4.74-1.63-2.56-2.85-5.36-3.59-8.3C.17,64.22-.02,62.64,0,61.05c-.02-3.25,1.16-6.39,3.31-8.83,2.05-2.43,4.87-4.1,8-4.73,1.25-.25,2.53-.34,3.8-.27,3.18.22,6.27,1.09,9.1,2.56,1.09.53,2.14,1.14,3.14,1.81.13.09.27.17.41.25.27-.15.49-.35.66-.61,3.01-3.33,6.02-6.65,9.02-9.99,6.55-7.25,13.1-14.51,19.66-21.75.12-.14.24-.28.36-.42-.06-.28-.3-.41-.47-.57-2.04-1.87-4.09-3.73-6.15-5.58-.24-.21-.46-.44-.68-.64,0-.22.14-.31.25-.42,3.54-3.81,7.07-7.62,10.6-11.43.12-.13.29-.23.3-.44h.14Z" />
    <path id="Pfad_382" class="cls-1wef23" d="m104.8,19.86c0,.9.26,1.78.75,2.54.84,1.33,2.14,2.3,3.65,2.74.66.21,1.35.26,2.03.16,2.26-.31,4.14-1.9,4.83-4.07.5-1.29.4-2.73-.27-3.93-.77-1.48-2.12-2.58-3.73-3.03-.72-.22-1.49-.26-2.23-.12-1.67.29-3.14,1.27-4.06,2.69-.62.89-.96,1.95-.96,3.03m-24.78,21.97c-.17-.17-.32-.32-.46-.46-.7-.62-1.41-1.24-2.1-1.87-.66-.6-.98-1.48-.87-2.37.16-1.36,1.33-2.37,2.69-2.33.74-.01,1.45.28,1.97.81.54.56,1.1,1.1,1.7,1.6.61.58,1.48.79,2.29.56.7-.16,1.18-.81,1.12-1.53,0-.18-.02-.37-.06-.55-.14-.53-.32-1.05-.55-1.55-.34-.7-.59-1.45-.73-2.21-.53-2.43-.72-4.91-.54-7.39.19-3.76,1.46-7.39,3.67-10.44,1.06-1.44,2.31-2.73,3.74-3.81,2.75-2.14,5.94-3.65,9.34-4.41,1.76-.39,3.57-.53,5.37-.4,4.7.31,9.14,2.25,12.55,5.48,3.09,2.78,5.28,6.42,6.29,10.45.53,2.07.72,4.22.55,6.35-.26,3.1-1.2,6.1-2.74,8.8-1.25,2.33-2.93,4.4-4.96,6.09-2.4,1.96-5.24,3.31-8.27,3.92-2.22.44-4.49.57-6.74.39-1.37-.08-2.72-.32-4.04-.71-.63-.21-1.3-.29-1.96-.23-.68.03-1.29.43-1.58,1.04-.33.63-.21,1.4.29,1.9.44.4.88.8,1.32,1.21.39.35.78.7,1.17,1.06,1.12,1.14,1.11,2.98-.03,4.1-.06.06-.12.11-.18.16-.79.56-1.84.57-2.63,0-.55-.37-1.07-.78-1.6-1.18-.42-.32-.84-.63-1.26-.95-.17-.12-.34-.23-.5-.34-.26.08-.38.29-.52.45-2.53,2.8-5.06,5.61-7.58,8.42-7.49,8.32-14.98,16.63-22.47,24.95-.56.6-1.21,1.12-1.91,1.55-1.24.83-2.64,1.38-4.11,1.61-1.66.26-3.37-.1-4.78-1.01-1.45-.9-2.63-2.18-3.4-3.69-1.04-2.02-1.06-4.41-.06-6.44.41-.9.95-1.73,1.62-2.46,7-7.8,14-15.61,20.99-23.42l9.53-10.64c.15-.17.29-.34.46-.54" />
    <path id="Pfad_383" class="cls-1wef23" d="m192.55,46.74c.07.68.1,1.37.23,2.05.61,3.79,3.76,6.64,7.58,6.88,2.04.17,4.08-.26,5.88-1.24,3.18-1.64,5.53-4.53,6.49-7.98.28-.85.43-1.74.45-2.64.05-2.55-1.13-4.97-3.17-6.49-2.15-1.66-4.92-2.28-7.57-1.7-2.06.38-3.98,1.29-5.58,2.64-.58.48-1.12,1.01-1.62,1.57-1.72,1.89-2.68,4.35-2.69,6.91m7.09,18.05c-2.44.04-4.87-.39-7.16-1.27-4.91-1.79-8.5-6.06-9.41-11.22-1.31-6.75.79-13.71,5.63-18.59,3.07-3.17,6.94-5.46,11.2-6.61,2.4-.68,4.89-.94,7.38-.76,3.75.19,7.34,1.57,10.25,3.94,2.98,2.41,4.9,5.88,5.36,9.69.26,2.22.11,4.46-.43,6.63-.88,3.98-2.79,7.67-5.54,10.68-3.31,3.66-7.72,6.14-12.56,7.07-1.55.31-3.12.46-4.7.44" />
    <path id="Pfad_384" class="cls-1wef23" d="m296.73,27.62c-.71,4.58-1.46,9.13-2.18,13.71.12.03.25.05.38.07,1.38.07,12.55.02,13.11-.06.1-.22.15-.46.17-.7.6-3.76,1.19-7.52,1.78-11.29.07-.41.12-.82.18-1.22.03-.18.08-.35.12-.51.61-.1,6.69-.14,8.86-.07.13,0,.26.04.44.06-1.89,11.99-3.77,23.95-5.65,35.88-.24.13-.51.17-.77.13-2.44,0-4.88,0-7.32,0-.28,0-.55,0-.82,0-.13,0-.27-.02-.45-.04-.01-.14-.01-.27,0-.41.62-3.9,1.23-7.8,1.85-11.69.13-.84.25-1.67.39-2.55-.11-.04-.22-.08-.33-.1-.18-.02-.36,0-.55,0h-11.64c-.27,0-.54,0-.85.01-.23.83-.28,1.65-.43,2.46s-.26,1.63-.39,2.45-.25,1.63-.38,2.45-.25,1.63-.38,2.45-.25,1.63-.38,2.45-.26,1.63-.4,2.47c-.16.03-.32.05-.49.06-2.79,0-5.57,0-8.35,0-.15,0-.31-.03-.48-.04-.01-.14-.01-.28,0-.43.25-1.63.51-3.26.77-4.89.35-2.2.7-4.4,1.05-6.6.34-2.1.67-4.21,1.01-6.32.35-2.18.69-4.35,1.04-6.53.34-2.11.67-4.22,1.01-6.32.21-1.34.42-2.68.64-4.01.04-.29.11-.58.17-.89.2-.01.38-.04.56-.04,4.29-.06,8.01-.03,8.7.08" />
    <path id="Pfad_385" class="cls-1wef23" d="m163.38,43.68c.8.06,1.6.05,2.4-.02.96-.06,1.9-.28,2.79-.65,1.16-.47,2.07-1.41,2.52-2.57.34-.88.46-1.83.35-2.77-.08-.81-.51-1.54-1.19-2-.47-.32-1-.55-1.56-.68-1.11-.24-2.25-.34-3.39-.29-.15,0-.31.02-.46.05-.04.09-.07.19-.1.28-.45,2.85-.9,5.7-1.36,8.64m-.96,6.41c-.72,4.48-1.44,8.95-2.16,13.45-.16.03-.33.06-.5.07-2.79,0-5.57,0-8.35,0-.15,0-.31-.03-.47-.04-.03-.07-.04-.14-.05-.22,1.88-11.83,3.76-23.65,5.64-35.48.03-.09.06-.18.09-.26.26-.08.54-.1.81-.07,4.38,0,8.76,0,13.14,0,.94-.01,1.87.05,2.8.18,1.41.19,2.77.62,4.02,1.29,2.15,1.1,3.6,3.2,3.87,5.6.58,3.68-.41,7.44-2.74,10.34-1.49,1.85-3.55,3.15-5.86,3.7-.22.06-.44.11-.66.17-.11.22.04.36.13.5.84,1.4,1.68,2.79,2.52,4.18,1.89,3.13,3.79,6.27,5.68,9.42.13.18.24.37.3.58-.06.04-.1.09-.13.09h-11.27c-.25-.13-.31-.37-.4-.57-.78-1.61-1.56-3.22-2.33-4.83-1.26-2.62-2.52-5.25-3.78-7.87-.05-.09-.11-.18-.18-.27l-.14.03" />
    <path id="Pfad_386" class="cls-1wef23" d="m222.11,60.44c.46-.79,4.85-7.1,5.23-7.51.22.07.34.27.5.42.95.96,2.06,1.76,3.27,2.36,1.49.72,3.15,1.01,4.79.81,1.1-.1,2.14-.54,2.98-1.27.63-.55,1.06-1.28,1.23-2.1.2-.77-.01-1.59-.56-2.18-.31-.34-.67-.63-1.07-.85-.72-.4-1.48-.71-2.28-.93-1.07-.33-2.14-.64-3.21-.98-.91-.29-1.8-.66-2.65-1.11-.74-.37-1.41-.86-1.99-1.44-1-1.04-1.57-2.42-1.6-3.85-.25-3.83,1.05-7.6,3.6-10.46,2.06-2.33,4.85-3.9,7.92-4.46,2.21-.41,4.47-.39,6.67.05,1.91.34,3.78.92,5.53,1.75.54.24,1.05.53,1.54.86-.27.57-4.45,6.82-4.83,7.22-.15-.13-.31-.26-.47-.4-1.61-1.4-3.71-2.09-5.83-1.93-1.13.07-2.2.53-3.03,1.3-.46.42-.78.97-.93,1.58-.18.66-.01,1.36.44,1.86.33.38.74.69,1.19.92.64.35,1.32.62,2.03.83.81.25,1.62.48,2.43.73,1.48.42,2.88,1.07,4.15,1.92,1.37.91,2.35,2.3,2.78,3.89.23.91.32,1.86.24,2.8-.12,1.7-.48,3.37-1.08,4.96-1.33,3.73-4.25,6.67-7.97,8.02-1.99.77-4.09,1.19-6.22,1.24-3.14.14-6.26-.48-9.11-1.79-1.18-.54-2.31-1.21-3.36-1.98-.11-.08-.21-.17-.34-.28" />
    <path id="Pfad_387" class="cls-1wef23" d="m282.89,28.33c-.55,3.71-1.12,7.37-1.68,11.04-.17.05-.22-.08-.29-.16-1.65-2.29-4.32-3.62-7.14-3.57-2.78-.09-5.47.93-7.5,2.83-2.27,2.02-3.69,4.83-3.99,7.85-.17,1.35-.04,2.72.39,4.01.67,2.14,2.32,3.82,4.44,4.55,2.17.78,4.54.8,6.72.05,1.79-.58,3.44-1.52,4.84-2.78.13-.12.27-.23.4-.33.03.02.05.04.08.06.01.02.02.04.02.06-.01.14-.02.28-.04.41-.56,3.44-1.13,6.88-1.7,10.32-.03.08-.06.16-.11.23-.78.22-1.59.46-2.4.67-1.36.39-2.75.66-4.16.82-1.04.11-2.1.12-3.14.05-2.01-.12-3.98-.58-5.84-1.35-2-.86-3.81-2.12-5.3-3.7-.98-1-1.82-2.13-2.48-3.36-.88-1.74-1.4-3.65-1.53-5.6-.21-2.71.11-5.43.96-8.01,1.05-3.24,2.81-6.2,5.17-8.66,3.16-3.35,7.25-5.67,11.75-6.67,4.03-.93,8.26-.57,12.08,1.02.13.05.25.11.45.21" />
    <path id="Pfad_391" class="cls-25h6t4" d="m211.94,2.73c1.05.85,2.04,1.65,3.03,2.45-.09.27-.25.51-.46.71-2.07,2.57-4.13,5.14-6.2,7.7l-7.85,9.72c-.13.16-.26.31-.38.45-.03.01-.07.02-.1.03-.02,0-.04,0-.06-.02-.86-.68-1.72-1.36-2.57-2.05-.12-.1-.23-.21-.36-.32.03-.27.23-.41.37-.58,3.02-3.76,6.05-7.52,9.09-11.28,1.59-1.98,3.19-3.96,4.78-5.93.22-.26.43-.53.71-.87" />
    <path id="Pfad_392" class="cls-25h6t4" d="m216.28,6.45c1.07.74,2.08,1.56,3.04,2.44-.02.25-.21.39-.35.56-2.78,3.43-5.56,6.86-8.35,10.28-.68.84-1.36,1.67-2.03,2.5-.14.17-.3.34-.44.5-1.06-.72-2.05-1.52-2.97-2.41.08-.23.22-.43.4-.6,1.69-2.1,3.38-4.21,5.07-6.31l5.12-6.37c.15-.19.32-.38.5-.6" />
  </g>
</svg>
